<?xml version="1.0" standalone="no"?>
<!DOCTYPE svg PUBLIC "-//W3C//DTD SVG 20010904//EN"
 "http://www.w3.org/TR/2001/REC-SVG-20010904/DTD/svg10.dtd">
<svg version="1.0" xmlns="http://www.w3.org/2000/svg"
 width="200.000000pt" height="200.000000pt" viewBox="0 0 200.000000 200.000000"
 preserveAspectRatio="xMidYMid meet">
<metadata>
Created by potrace 1.10, written by Peter Selinger 2001-2011
</metadata>
<g transform="translate(0.000000,200.000000) scale(0.100000,-0.100000)"
fill="#eeeee4
" stroke="none">
<path d="M1795 1804 c-55 -47 -163 -139 -240 -204 l-140 -117 -332 -144 c-182
-79 -331 -144 -330 -145 1 -1 67 4 147 11 131 11 166 18 370 80 124 37 232 75
242 84 15 15 390 521 385 521 -1 0 -47 -39 -102 -86z m-54 -91 c-91 -122 -168
-227 -202 -276 -22 -32 -46 -60 -52 -62 -42 -13 -358 -108 -387 -116 -45 -12
-203 -39 -207 -35 -4 4 44 27 137 67 41 18 93 40 115 50 22 9 84 36 138 59
114 48 159 72 192 103 26 24 50 45 114 97 24 19 53 44 65 55 27 26 100 85 104
85 2 0 -6 -12 -17 -27z"/>
<path d="M105 1823 c5 -10 26 -79 49 -153 l40 -136 145 -108 145 -109 159 19
160 19 -250 113 -250 113 -98 129 c-94 126 -115 149 -100 113z m144 -206 c26
-34 59 -64 80 -73 20 -9 69 -32 108 -50 40 -19 75 -34 77 -34 3 0 49 -21 103
-47 l98 -47 -70 -7 c-38 -4 -89 -10 -113 -13 -40 -5 -48 -1 -110 45 -37 28
-97 72 -133 99 -66 50 -89 81 -89 125 0 14 -4 25 -9 25 -5 0 -11 10 -14 23 -2
12 -8 31 -12 42 -6 17 -4 16 16 -5 13 -14 44 -51 68 -83z"/>
<path d="M1685 1424 c-11 -8 -72 -44 -135 -79 -109 -60 -125 -65 -290 -102
l-175 -38 60 -8 c56 -8 131 -5 269 10 56 6 62 9 140 82 45 42 99 91 120 109
39 34 47 52 11 26z m-172 -143 c-34 -30 -55 -40 -110 -50 -111 -21 -144 -9
-38 13 55 12 107 31 134 48 60 38 64 35 14 -11z"/>
<path d="M985 1355 c-14 -6 -498 -65 -528 -65 -14 0 -30 -6 -36 -14 -6 -7 -32
-19 -57 -26 -32 -9 -43 -17 -40 -27 4 -8 6 -15 6 -16 0 -1 84 -2 188 -2 l187
0 160 71 c88 39 167 74 175 77 8 3 2 5 -15 5 -16 0 -34 -1 -40 -3z m-96 -40
c-3 -2 -52 -25 -109 -50 l-104 -46 -85 7 c-47 4 -90 8 -96 9 -5 1 -26 3 -44 3
-48 3 -27 21 30 28 142 16 365 46 368 50 2 2 13 4 24 4 11 0 18 -2 16 -5z"/>
<path d="M501 1186 c2 -3 65 -19 139 -37 136 -33 161 -35 280 -23 l65 6 -25
-20 c-25 -21 -25 -21 -5 -37 51 -40 55 -39 55 10 0 55 15 52 24 -5 6 -39 7
-40 47 -40 l40 0 -20 28 c-11 16 -27 35 -36 42 -8 7 -15 16 -15 21 0 5 27 -11
61 -35 51 -38 65 -43 87 -36 15 5 33 10 40 12 8 2 -23 19 -67 37 -45 19 -80
35 -78 37 2 2 45 -10 96 -27 l93 -31 50 23 50 24 -168 27 c-162 27 -176 28
-340 19 -94 -6 -179 -8 -190 -6 -29 6 -187 15 -183 11z m541 -31 c-4 -17 -50
-24 -62 -10 -8 10 -7 15 7 18 28 8 58 3 55 -8z"/>
<path d="M510 857 c-22 -11 -25 -20 -28 -78 -3 -81 6 -91 89 -97 68 -5 78 -16
73 -76 -4 -46 -15 -56 -67 -56 -57 0 -77 14 -77 55 0 32 -2 34 -22 26 -23 -9
-26 -24 -13 -77 7 -31 55 -47 126 -42 80 6 99 26 99 108 0 81 -17 99 -100 108
l-65 7 0 40 0 40 48 3 c46 3 47 3 47 -27 0 -34 6 -37 33 -17 18 14 22 43 9 62
-22 33 -105 45 -152 21z"/>
<path d="M825 861 c-40 -17 -43 -32 -47 -199 -2 -89 -1 -162 2 -162 3 0 13 7
23 14 13 10 17 28 17 85 l0 71 76 0 77 0 -5 -84 -4 -84 23 11 c23 10 23 13 23
157 0 184 -4 192 -101 197 -35 1 -73 -1 -84 -6z m139 -63 c3 -13 6 -38 6 -55
l0 -33 -75 0 -75 0 0 39 c0 66 5 71 75 71 57 0 63 -2 69 -22z m26 -114 c0 -8
-5 -12 -10 -9 -6 4 -8 11 -5 16 9 14 15 11 15 -7z"/>
<path d="M1155 860 c-40 -16 -43 -31 -47 -198 -2 -89 -1 -162 2 -162 3 0 13 7
23 14 15 11 17 31 17 144 0 72 3 137 6 146 5 12 21 16 65 16 79 0 82 -7 77
-180 l-3 -137 22 10 c22 10 23 16 25 156 l3 146 65 0 65 0 3 -157 3 -157 24
11 c25 11 25 11 25 158 0 182 -5 191 -98 198 -40 3 -70 0 -89 -10 -23 -11 -32
-12 -53 -1 -28 14 -104 16 -135 3z"/>
<path d="M580 437 c-24 -12 -25 -17 -28 -112 -3 -120 4 -135 71 -142 72 -8 94
11 99 87 l3 60 -41 0 c-28 0 -44 -5 -48 -15 -4 -11 2 -15 24 -15 28 0 30 -2
30 -40 0 -22 -3 -40 -7 -41 -5 0 -25 -1 -46 -3 -21 -2 -42 3 -47 10 -6 7 -10
48 -8 95 3 80 4 84 29 93 14 5 38 6 53 2 21 -5 26 -12 26 -37 0 -26 2 -28 19
-20 24 13 17 56 -12 76 -26 18 -83 19 -117 2z"/>
<path d="M830 371 l-35 -6 -5 -93 c-4 -74 -2 -91 8 -87 8 3 16 5 18 5 2 0 4
34 4 75 0 73 4 81 34 76 9 -2 26 18 26 32 0 4 -3 6 -7 6 -5 -1 -24 -4 -43 -8z"/>
<path d="M1114 367 c-3 -8 -4 -49 -2 -93 l3 -79 38 -10 c30 -7 45 -5 65 6 26
14 27 19 30 103 2 68 0 87 -10 84 -9 -3 -14 -30 -16 -81 -2 -42 -6 -77 -10
-78 -4 -1 -20 -2 -37 -3 l-30 -1 -3 83 c-3 75 -14 104 -28 69z"/>
<path d="M921 356 c-7 -9 -11 -40 -9 -82 3 -62 5 -70 30 -83 20 -11 35 -13 65
-6 l38 10 0 85 0 85 -56 3 c-40 2 -59 -1 -68 -12z m94 -76 c0 -63 -1 -65 -25
-65 -39 0 -50 14 -50 64 0 54 9 67 47 66 28 0 28 -1 28 -65z"/>
<path d="M1322 358 c-8 -8 -12 -50 -12 -131 0 -105 2 -118 16 -113 9 3 18 6
20 6 3 0 2 16 -2 35 -6 34 -6 35 22 29 16 -3 42 -1 57 5 28 11 28 11 25 93
l-3 83 -55 3 c-34 2 -60 -2 -68 -10z m91 -17 c4 -1 7 -29 5 -63 -3 -61 -4 -63
-31 -63 -37 -1 -45 11 -44 65 0 53 9 68 39 64 13 -1 27 -3 31 -3z"/>
</g>
</svg>
